<svg width="22" height="32" viewBox="0 0 22 32" fill="none" xmlns="http://www.w3.org/2000/svg">
<path d="M13.5265 0.299477C12.9971 0.173031 12.4544 0.0998258 11.9184 0C11.3095 0 10.6941 0 10.0853 0C10.0125 0.0199652 9.94631 0.0532404 9.87352 0.0598955C6.91542 0.392648 4.44703 1.69704 2.55438 3.99969C0.476434 6.52861 -0.383862 9.44352 0.158786 12.7112C0.522757 14.8874 1.38305 16.9038 2.32938 18.8804C4.44041 23.2727 7.06101 27.3589 9.88675 31.3187C10.5353 32.2304 11.4485 32.2238 12.1037 31.3187C13.9103 28.8164 15.5978 26.2409 17.1529 23.5855C18.6485 21.0233 20.0382 18.4079 21.0441 15.5994C21.5405 14.2085 21.964 12.7977 21.9971 11.3069C22.1162 6.07607 18.5824 1.50404 13.5265 0.299477ZM10.9853 15.0804C8.79484 15.0804 7.00807 13.2702 7.00807 11.0607C7.00807 8.85122 8.80146 7.05436 10.9985 7.05436C13.189 7.05436 14.989 8.85788 14.989 11.054C14.989 13.2835 13.1956 15.087 10.9853 15.0804Z" fill="#00CCA6"/>
</svg>
